<svg xmlns="http://www.w3.org/2000/svg" viewBox="0 0 40 40" fill="none">
  <rect x="1" y="1" width="38" height="38" rx="11" fill="#3b82f6" fill-opacity="0.1" stroke="#3b82f6" stroke-opacity="0.2" stroke-width="1"/>
  <path d="M26 9.5c4.2 1.2 6.5 4.8 6.5 10.5s-2.3 9.3-6.5 10.5" stroke="#2563eb" stroke-opacity="0.35" stroke-width="1.25" stroke-linecap="round" fill="none"/>
  <path d="M14 8.5h7.5c5.8 0 10.5 4.6 10.5 11.5S27.3 31.5 21.5 31.5H14V8.5z" fill="#2563eb"/>
  <circle cx="18.5" cy="14" r="1.35" fill="#f8fafc"/>
  <circle cx="22.5" cy="14" r="1.35" fill="#f8fafc"/>
  <circle cx="18.5" cy="18.5" r="1.35" fill="#f8fafc"/>
  <circle cx="22.5" cy="18.5" r="1.35" fill="#f8fafc"/>
  <circle cx="18.5" cy="23" r="1.35" fill="#f8fafc"/>
  <circle cx="22.5" cy="23" r="1.35" fill="#f8fafc"/>
  <circle cx="20.5" cy="27.5" r="1.35" fill="#f8fafc"/>
  <path d="M27.5 15.5c3.2 0 5.5 1.6 5.5 4.5s-2.3 4.5-5.5 4.5" stroke="#93c5fd" stroke-width="1.6" stroke-linecap="round" fill="none"/>
  <path d="M27.5 20.5c4 0 6.8 2 6.8 5.2 0 2.4-1.4 4.2-3.6 5" stroke="#60a5fa" stroke-opacity="0.8" stroke-width="1.4" stroke-linecap="round" fill="none"/>
  <circle cx="11" cy="12" r="1.6" fill="#3b82f6"/>
  <circle cx="8" cy="17" r="1.2" fill="#3b82f6" fill-opacity="0.55"/>
  <circle cx="11.5" cy="21" r="1.4" fill="#3b82f6" fill-opacity="0.75"/>
  <path d="M11 13.6v2.2M11 17.4v1.4" stroke="#3b82f6" stroke-opacity="0.4" stroke-width="1" stroke-linecap="round"/>
  <path d="M9.2 16.2l1.6 0.8M9.5 20.2l2 0.5" stroke="#3b82f6" stroke-opacity="0.35" stroke-width="0.9" stroke-linecap="round"/>
</svg>
